Coordinates
version=1
nRows=30
nColumns=19
inDegrees=yes

Units are S.I. units (second, meters, Newtons, ...)
If the header above contains a line with 'inDegrees', this indicates whether rotational values are in degrees (yes) or radians (no).

endheader
time	pelvis_tilt	pelvis_list	pelvis_rotation	pelvis_tx	pelvis_ty	pelvis_tz	hip_flexion_r	hip_adduction_r	hip_rotation_r	knee_angle_r	knee_angle_r_beta	ankle_angle_r	hip_flexion_l	hip_adduction_l	hip_rotation_l	knee_angle_l	knee_angle_l_beta	ankle_angle_l
     11.52000000	     -2.75894414	    -10.65075310	      2.84651446	      2.36416901	      1.01140555	      1.06436528	     38.49744890	      8.20623354	    -17.00795288	     27.26197761	      0.47581127	     -2.47298220	    -16.67350545	    -10.47423392	      0.62504465	     73.28908419	      1.27913582	    -18.21825194
     11.52666667	     -1.96388199	    -10.79115171	      2.52926836	      2.36519848	      1.00727073	      1.06448556	     37.05387682	      8.51718703	    -17.26457459	     28.89473620	      0.50430828	     -2.02106570	    -16.32391273	    -10.50418494	      0.43788071	     76.85383927	      1.34135254	    -17.06060675
     11.53333333	     -1.34724625	    -10.98801049	      2.23247865	      2.36603430	      1.00261993	      1.06463429	     35.83442023	      8.84617993	    -17.45850201	     30.76344055	      0.53692333	     -1.25444127	    -15.67466969	    -10.65030850	      0.28417939	     80.39596956	      1.40317437	    -15.90331106
     11.54000000	     -1.21694118	    -11.13037113	      1.82200690	      2.36660050	      0.99717148	      1.06500509	     35.18864545	      9.13621834	    -17.46177646	     32.89455073	      0.57411822	     -0.13099091	    -14.38375384	    -10.79189724	      0.10780615	     83.96771191	      1.46551304	    -14.67563903
     11.54666667	     -0.77356384	    -11.47661373	      1.24283505	      2.36693633	      0.99198262	      1.06556016	     34.21699419	      9.80745937	    -17.20694770	     35.13160303	      0.61316214	      1.40842282	    -13.46433287	    -11.22108098	     -0.41888412	     87.34574111	      1.52447077	    -13.42200841
     11.55333333	     -1.08414440	    -11.68137106	      0.44764062	      2.36682712	      0.98591984	      1.06646003	     34.13709506	     10.41604770	    -16.61378972	     37.63368618	      0.65683173	      3.26305219	    -11.56836778	    -11.55110229	     -0.91467246	     90.79319470	      1.58464019	    -12.19671588
     11.56000000	     -1.26185511	    -12.03561166	     -0.37037067	      2.36637937	      0.98013908	      1.06743808	     33.91437202	     11.25880096	    -15.92246368	     40.19082487	      0.70146222	      5.44955200	     -9.74634325	    -12.16802157	     -1.47764112	     94.10108189	      1.64237371	    -11.05058731
     11.56666667	     -1.58180873	    -12.42258443	     -1.23995523	      2.36554869	      0.97446734	      1.06852312	     33.81642806	     12.21230191	    -15.09211137	     42.76027661	      0.74630762	      7.84426998	     -7.64268027	    -12.93048592	     -1.98782706	     97.31794171	      1.69851850	     -9.98416133
     11.57333333	     -2.00337013	    -12.79196091	     -2.10847381	      2.36433438	      0.96905770	      1.06963325	     33.75764343	     13.19756758	    -14.16773791	     45.26877314	      0.79008914	     10.37554656	     -5.27233683	    -13.75572819	     -2.34755082	    100.40862902	      1.75246117	     -9.01905040
     11.58000000	     -2.46490488	    -13.19330072	     -2.97116805	      2.36281374	      0.96411727	      1.07078089	     33.59373626	     14.26801272	    -13.16197515	     47.56619177	      0.83018666	     12.92405954	     -2.70749523	    -14.71582783	     -2.56866010	    103.33170238	      1.80347843	     -8.18334523
     11.58666667	     -2.94050253	    -13.54890726	     -3.79811683	      2.36103471	      0.95977345	      1.07187663	     33.25657521	     15.30313874	    -12.08897667	     49.59653542	      0.86562284	     15.41038577	      0.04352335	    -15.66616296	     -2.58342855	    106.03632941	      1.85068307	     -7.43444065
     11.59333333	     -3.42659705	    -13.78647376	     -4.53793691	      2.35902328	      0.95607204	      1.07284098	     32.70425288	     16.18361345	    -10.98014865	     51.29472012	      0.89526175	     17.79879062	      3.02716736	    -16.48338138	     -2.33717371	    108.50307740	      1.89373595	     -6.80083709
     11.60000000	     -3.87211735	    -13.88835799	     -5.15833357	      2.35685016	      0.95320577	      1.07360453	     31.84329051	     16.86273910	     -9.82525284	     52.56837108	      0.91749116	     20.04751076	      6.18555311	    -17.09930360	     -1.83361379	    110.66520224	      1.93147215	     -6.28710207
     11.60666667	     -4.23750365	    -13.85739149	     -5.67984425	      2.35473295	      0.95115859	      1.07418288	     30.61231610	     17.32068872	     -8.63524280	     53.41308437	      0.93223419	     22.10998302	      9.40815973	    -17.49121980	     -1.16965898	    112.46415925	      1.96286987	     -5.82093581
     11.61333333	     -3.98362796	    -13.75386024	     -6.03609009	      2.35285409	      0.95071147	      1.07445622	     28.36460390	     17.57393598	     -7.37234650	     53.70968688	      0.93741088	     23.98503295	     11.98526299	    -17.66626877	     -0.52292702	    113.75240433	      1.98535399	     -5.33748254
     11.62000000	     -3.89464233	    -13.51081252	     -6.36584033	      2.35117694	      0.95075446	      1.07470436	     26.03548784	     17.60042855	     -6.08813154	     53.56734329	      0.93492651	     25.56061279	     14.81037214	    -17.62768423	      0.17160804	    114.67540832	      2.00146345	     -4.80053438
     11.62666667	     -4.23428064	    -13.02014710	     -6.51267803	      2.34944983	      0.95075267	      1.07469308	     24.06030471	     17.18236963	     -5.10806704	     53.12591637	      0.92722216	     26.90421990	     18.30760712	    -17.16872723	      1.13054456	    115.32838444	      2.01286003	     -4.27528448
     11.63333333	     -4.21082647	    -12.51520489	     -6.75739200	      2.34812546	      0.95197339	      1.07492784	     21.40693075	     16.77794885	     -3.83470083	     52.19786031	      0.91102452	     27.78770295	     21.18842238	    -16.69193464	      1.74075745	    115.44973574	      2.01497801	     -3.64495178
     11.64000000	     -4.28462601	    -11.88525701	     -6.91666080	      2.34712953	      0.95357771	      1.07511582	     18.71878827	     16.12925179	     -2.70358147	     50.93405586	      0.88896698	     28.44195230	     24.11023656	    -16.01222597	      2.30023300	    115.17844395	      2.01024307	     -2.95127301
     11.64666667	     -3.79376907	    -10.93096017	     -6.37142568	      2.34649828	      0.95622313	      1.07438293	     15.41865322	     14.76170878	     -2.28807443	     49.39500986	      0.86210556	     28.98662029	     26.46745051	    -14.49331150	      3.13950083	    114.46334337	      1.99776221	     -2.24452051
     11.65333333	     -3.59627901	    -10.05557089	     -6.14185551	      2.34622156	      0.95902786	      1.07428873	     12.27738066	     13.63287077	     -1.63184022	     47.54513005	      0.82981906	     28.98750465	     28.84025169	    -13.27076636	      3.60317897	    113.38042086	      1.97886165	     -1.44994156
     11.66000000	     -3.20375385	     -9.16883482	     -5.87980306	      2.34640430	      0.96249222	      1.07429943	      8.82575079	     12.46970731	     -1.02808388	     45.40677401	      0.79249771	     28.41570746	     30.75445003	    -12.03192933	      3.88485097	    111.90350593	      1.95308462	     -0.58562805
     11.66666667	     -3.23963692	     -8.16025480	     -5.56776373	      2.34675562	      0.96568488	      1.07434317	      5.89378260	     11.19050542	     -0.67265664	     43.20523214	      0.75407355	     27.40869415	     33.02407145	    -10.62625372	      4.13399055	    110.15598725	      1.92258467	      0.19478679
     11.67333333	     -3.24746849	     -7.17896812	     -5.23895579	      2.34750492	      0.96921227	      1.07447788	      2.88907639	      9.96242988	     -0.38941475	     40.80948435	      0.71225987	     25.84014378	     35.02656992	     -9.27406436	      4.26965464	    108.08112023	      1.88637141	      0.97527899
     11.68000000	     -3.25441951	     -6.20793364	     -4.90642241	      2.34863727	      0.97291532	      1.07474086	     -0.11860376	      8.76783881	     -0.19873196	     38.29091372	      0.66830252	     23.77523024	     36.81386200	     -8.01493753	      4.25104449	    105.72114139	      1.84518201	      1.74027689
     11.68666667	     -3.42198585	     -5.24157169	     -4.62850630	      2.35006556	      0.97666055	      1.07516427	     -2.90172865	      7.59778349	     -0.12240371	     35.73221814	      0.62364486	     21.07998095	     38.57223313	     -6.85130999	      4.09723895	    103.08948601	      1.79925095	      2.41143069
     11.69333333	     -3.83324927	     -4.29559645	     -4.27161211	      2.35178063	      0.98019182	      1.07554400	     -5.33983699	      6.47691513	     -0.31821546	     33.17570578	      0.57902530	     17.82050697	     40.45061202	     -5.73917092	      3.91241857	    100.23612791	      1.74945046	      2.93968915
     11.70000000	     -4.07403983	     -3.37778852	     -3.97257455	      2.35379027	      0.98410554	      1.07605223	     -7.91480288	      5.37220102	     -0.63076964	     30.55554246	      0.53329482	     13.98909905	     41.90745068	     -4.78617950	      3.53366684	     97.10355684	      1.69477678	      3.43810394
     11.70666667	     -4.50635527	     -2.50242476	     -3.70579798	      2.35604475	      0.98782044	      1.07672420	    -10.16177180	      4.34695249	     -1.08070225	     28.01537881	      0.48896060	      9.67724061	     43.40355508	     -4.01575983	      3.01129071	     93.76929995	      1.63658302	      3.85706839
     11.71333333	     -4.96346781	     -1.65929632	     -3.47205482	      2.35846256	      0.99154292	      1.07744609	    -12.26788606	      3.35896023	     -1.68783749	     25.53620885	      0.44569092	      4.96461054	     44.74680240	     -3.42414158	      2.29886018	     90.20880839	      1.57444072	      4.16291517
